<svg width="80" height="80" viewBox="0 0 80 80" fill="none" xmlns="http://www.w3.org/2000/svg">
<path d="M78.9262 2.98433C78.8258 2.51676 78.5924 2.08813 78.2542 1.74997C77.9159 1.41181 77.4872 1.17851 77.0195 1.07811C71.9869 0 68.0499 0 64.1269 0C47.9976 0 38.3231 8.62488 31.104 19.9997H14.8184C13.4276 20.0009 12.0644 20.3886 10.8812 21.1195C9.69806 21.8504 8.74142 22.8957 8.11815 24.1387L0.3942 39.576C0.108956 40.1479 -0.0253771 40.7831 0.00395089 41.4215C0.0332788 42.0598 0.225295 42.6801 0.561775 43.2234C0.898255 43.7667 1.36804 44.2151 1.92653 44.5259C2.48503 44.8367 3.11371 44.9997 3.75292 44.9994H19.9713L16.4595 48.5103C15.5218 49.4479 14.995 50.7195 14.995 52.0454C14.995 53.3712 15.5218 54.6428 16.4595 55.5805L24.4147 63.535C24.8791 63.9995 25.4305 64.3678 26.0374 64.6192C26.6443 64.8705 27.2947 64.9999 27.9516 64.9999C28.6085 64.9999 29.2589 64.8705 29.8658 64.6192C30.4727 64.3678 31.0241 63.9995 31.4885 63.535L35.0004 60.0242V76.2489C35.0002 76.8877 35.1632 77.516 35.4741 78.0742C35.7849 78.6323 36.2332 79.1018 36.7764 79.4381C37.3197 79.7745 37.9399 79.9665 38.5782 79.996C39.2165 80.0255 39.8517 79.8915 40.4237 79.6067L55.8497 71.8896C57.0951 71.2677 58.1424 70.311 58.8741 69.1269C59.6057 67.9428 59.9926 66.5783 59.9915 65.1866V48.8728C71.3367 41.6385 79.9968 31.9355 79.9968 15.8904C80.0125 11.953 80.0125 8.01551 78.9262 2.98433ZM60.0071 26.2496C58.7706 26.2496 57.5619 25.8831 56.5338 25.1963C55.5058 24.5096 54.7045 23.5335 54.2313 22.3915C53.7581 21.2494 53.6343 19.9928 53.8755 18.7804C54.1168 17.5681 54.7122 16.4544 55.5865 15.5804C56.4608 14.7063 57.5747 14.1111 58.7874 13.8699C60.0002 13.6287 61.2572 13.7525 62.3995 14.2256C63.5419 14.6986 64.5182 15.4997 65.2052 16.5275C65.8921 17.5552 66.2588 18.7636 66.2588 19.9997C66.2588 21.6573 65.6001 23.247 64.4277 24.4191C63.2553 25.5912 61.6651 26.2496 60.0071 26.2496Z" fill="url(#paint0_linear_23_76)"/>
<defs>
<linearGradient id="paint0_linear_23_76" x1="40" y1="0" x2="40" y2="80" gradientUnits="userSpaceOnUse">
<stop stop-color="#FFD8BC"/>
<stop offset="1" stop-color="#FFC9A2"/>
</linearGradient>
</defs>
</svg>
