<svg width="64" height="86" viewBox="0 0 64 86" fill="none" xmlns="http://www.w3.org/2000/svg">
<path d="M16.1868 60.9107C14.7385 59.451 15.4935 59.8625 12.0002 58.9203C10.4152 58.4919 9.0219 57.6689 7.76192 56.683L0.200327 75.3674C-0.531332 77.1764 0.835321 79.1416 2.77197 79.0677L11.5535 78.7301L17.5935 85.1598C18.9268 86.5774 21.2668 86.1357 21.9984 84.3267L30.6733 62.891C28.8667 63.9055 26.8617 64.5001 24.7884 64.5001C21.5384 64.5001 18.4851 63.2252 16.1868 60.9107ZM63.7997 75.3674L56.2381 56.683C54.9781 57.6706 53.5848 58.4919 51.9998 58.9203C48.4882 59.8676 49.2582 59.4544 47.8132 60.9107C45.5149 63.2252 42.4599 64.5001 39.2099 64.5001C37.1366 64.5001 35.1316 63.9038 33.325 62.891L41.9999 84.3267C42.7316 86.1357 45.0732 86.5774 46.4049 85.1598L52.4465 78.7301L61.228 79.0677C63.1647 79.1416 64.5313 77.1747 63.7997 75.3674ZM43.8332 57.1096C46.3799 54.4977 46.6715 54.7228 50.2981 53.7268C52.6131 53.0902 54.4231 51.2342 55.0431 48.8591C56.2898 44.0889 55.9664 44.665 59.3681 41.1747C61.063 39.4363 61.7247 36.9017 61.1047 34.5266C59.8597 29.7598 59.8581 30.4249 61.1047 25.653C61.7247 23.278 61.063 20.7434 59.3681 19.005C55.9664 15.5146 56.2898 16.0891 55.0431 11.3205C54.4231 8.94551 52.6131 7.08949 50.2981 6.45291C45.6515 5.17469 46.2115 5.50894 42.8066 2.01694C41.1116 0.278497 38.6399 -0.401763 36.325 0.234826C31.68 1.51136 32.3283 1.51304 27.675 0.234826C25.3601 -0.401763 22.8884 0.276818 21.1934 2.01694C17.7918 5.50726 18.3518 5.17469 13.7035 6.45291C11.3885 7.08949 9.57856 8.94551 8.95857 11.3205C7.71358 16.0891 8.03525 15.5146 4.63362 19.005C2.93863 20.7434 2.27531 23.278 2.89697 25.653C4.14195 30.4165 4.14362 29.7514 2.89697 34.525C2.27697 36.9 2.93863 39.4346 4.63362 41.1747C8.03525 44.665 7.71192 44.0889 8.95857 48.8591C9.57856 51.2342 11.3885 53.0902 13.7035 53.7268C17.4335 54.7514 17.7118 54.5901 20.1668 57.1096C22.3718 59.3721 25.8067 59.7769 28.4567 58.0872C29.5164 57.4092 30.7456 57.0491 32.0008 57.0491C33.256 57.0491 34.4853 57.4092 35.545 58.0872C38.1933 59.7769 41.6282 59.3721 43.8332 57.1096ZM16.2768 29.5565C16.2768 20.6493 23.3168 13.4285 32 13.4285C40.6832 13.4285 47.7232 20.6493 47.7232 29.5565C47.7232 38.4638 40.6832 45.6846 32 45.6846C23.3168 45.6846 16.2768 38.4638 16.2768 29.5565Z" fill="url(#paint0_linear_23_78)"/>
<defs>
<linearGradient id="paint0_linear_23_78" x1="32" y1="0" x2="32" y2="86" gradientUnits="userSpaceOnUse">
<stop stop-color="#E8E8E8"/>
<stop offset="1" stop-color="#DBDBDB"/>
</linearGradient>
</defs>
</svg>
