<svg width="79" height="64" viewBox="0 0 79 64" fill="none" xmlns="http://www.w3.org/2000/svg">
<path d="M65.175 56H13.825C12.7388 56 11.85 56.9 11.85 58V62C11.85 63.1 12.7388 64 13.825 64H65.175C66.2613 64 67.15 63.1 67.15 62V58C67.15 56.9 66.2613 56 65.175 56ZM73.075 16C69.8039 16 67.15 18.6875 67.15 22C67.15 22.8875 67.3475 23.7125 67.6931 24.475L58.7563 29.9C56.8553 31.05 54.3989 30.4 53.3003 28.45L43.2402 10.625C44.5609 9.525 45.425 7.875 45.425 6C45.425 2.6875 42.7711 0 39.5 0C36.2289 0 33.575 2.6875 33.575 6C33.575 7.875 34.4391 9.525 35.7598 10.625L25.6997 28.45C24.6011 30.4 22.1323 31.05 20.2437 29.9L11.3192 24.475C11.6525 23.725 11.8623 22.8875 11.8623 22C11.8623 18.6875 9.20844 16 5.93734 16C2.66625 16 0 18.6875 0 22C0 25.3125 2.65391 28 5.925 28C6.24594 28 6.56687 27.95 6.87547 27.9L15.8 52H63.2L72.1245 27.9C72.4331 27.95 72.7541 28 73.075 28C76.3461 28 79 25.3125 79 22C79 18.6875 76.3461 16 73.075 16Z" fill="url(#paint0_linear_23_80)"/>
<defs>
<linearGradient id="paint0_linear_23_80" x1="39.5" y1="0" x2="39.5" y2="64" gradientUnits="userSpaceOnUse">
<stop stop-color="#FFE49F"/>
<stop offset="1" stop-color="#FFD37F"/>
</linearGradient>
</defs>
</svg>
