<svg width="80" height="80" fill="none" xmlns="http://www.w3.org/2000/svg"><path d="M78.926 2.984a2.483 2.483 0 0 0-1.907-1.906C71.987 0 68.05 0 64.127 0c-16.13 0-25.804 8.625-33.023 20H14.818a7.504 7.504 0 0 0-6.7 4.139L.394 39.576a3.75 3.75 0 0 0 3.359 5.423H19.97l-3.51 3.511a5 5 0 0 0 0 7.07l7.956 7.955a5 5 0 0 0 7.073 0L35 60.025v16.224a3.749 3.749 0 0 0 5.424 3.358L55.85 71.89a7.487 7.487 0 0 0 4.142-6.703V48.873c11.345-7.234 20.005-16.937 20.005-32.983.016-3.937.016-7.874-1.07-12.906zM60.007 26.25a6.253 6.253 0 0 1-6.131-7.47 6.25 6.25 0 0 1 8.524-4.554 6.251 6.251 0 0 1 2.028 10.193 6.253 6.253 0 0 1-4.42 1.83z" fill="url(#a)"/><defs><linearGradient id="a" x1="40" y1="0" x2="40" y2="80" gradientUnits="userSpaceOnUse"><stop stop-color="#FFD8BC"/><stop offset="1" stop-color="#FFC9A2"/></linearGradient></defs></svg>