<svg width="64" height="86" fill="none" xmlns="http://www.w3.org/2000/svg"><path d="M16.187 60.91c-1.449-1.459-.694-1.047-4.187-1.99-1.585-.428-2.978-1.251-4.238-2.237L.2 75.367c-.731 1.81.635 3.775 2.572 3.7l8.782-.337 6.04 6.43c1.333 1.417 3.673.976 4.404-.833l8.675-21.436c-1.806 1.015-3.811 1.61-5.885 1.61a12.04 12.04 0 0 1-8.601-3.59zM63.8 75.368l-7.562-18.684c-1.26.988-2.653 1.809-4.238 2.237-3.512.948-2.742.534-4.187 1.99a12.044 12.044 0 0 1-8.603 3.59c-2.073 0-4.078-.596-5.885-1.609L42 84.327c.732 1.809 3.073 2.25 4.405.833l6.041-6.43 8.782.338c1.937.074 3.303-1.893 2.572-3.7zM43.833 57.11c2.547-2.612 2.839-2.387 6.465-3.383 2.315-.637 4.125-2.493 4.745-4.868 1.247-4.77.923-4.194 4.325-7.684 1.695-1.739 2.357-4.273 1.737-6.648-1.245-4.767-1.247-4.102 0-8.874.62-2.375-.042-4.91-1.737-6.648-3.402-3.49-3.078-2.916-4.325-7.684-.62-2.375-2.43-4.232-4.745-4.868-4.647-1.278-4.087-.944-7.491-4.436C41.112.278 38.64-.402 36.325.235c-4.645 1.276-3.997 1.278-8.65 0-2.315-.637-4.787.042-6.482 1.782-3.401 3.49-2.841 3.158-7.49 4.436-2.314.636-4.124 2.493-4.744 4.867-1.245 4.77-.924 4.195-4.325 7.685-1.695 1.738-2.359 4.273-1.737 6.648 1.245 4.764 1.247 4.098 0 8.872-.62 2.375.042 4.91 1.737 6.65 3.401 3.49 3.078 2.914 4.325 7.684.62 2.375 2.43 4.231 4.745 4.868 3.73 1.024 4.008.863 6.463 3.383 2.205 2.262 5.64 2.667 8.29.977a6.575 6.575 0 0 1 7.088 0c2.648 1.69 6.083 1.285 8.288-.977zM16.277 29.557c0-8.908 7.04-16.128 15.723-16.128s15.723 7.22 15.723 16.127c0 8.908-7.04 16.129-15.723 16.129s-15.723-7.221-15.723-16.129z" fill="url(#a)"/><defs><linearGradient id="a" x1="32" y1="0" x2="32" y2="86" gradientUnits="userSpaceOnUse"><stop stop-color="#E8E8E8"/><stop offset="1" stop-color="#DBDBDB"/></linearGradient></defs></svg>