<svg width="79" height="64" fill="none" xmlns="http://www.w3.org/2000/svg"><path d="M65.175 56h-51.35c-1.086 0-1.975.9-1.975 2v4c0 1.1.889 2 1.975 2h51.35c1.086 0 1.975-.9 1.975-2v-4c0-1.1-.889-2-1.975-2zm7.9-40c-3.271 0-5.925 2.688-5.925 6 0 .887.197 1.712.543 2.475L58.756 29.9a3.918 3.918 0 0 1-5.456-1.45L43.24 10.625c1.32-1.1 2.185-2.75 2.185-4.625 0-3.313-2.654-6-5.925-6s-5.925 2.688-5.925 6c0 1.875.864 3.525 2.185 4.625L25.7 28.45c-1.099 1.95-3.568 2.6-5.456 1.45l-8.925-5.425A6.1 6.1 0 0 0 11.862 22c0-3.313-2.654-6-5.925-6C2.667 16 0 18.688 0 22c0 3.313 2.654 6 5.925 6 .32 0 .642-.05.95-.1L15.8 52h47.4l8.924-24.1a6 6 0 0 0 .951.1C76.346 28 79 25.312 79 22c0-3.313-2.654-6-5.925-6z" fill="url(#a)"/><defs><linearGradient id="a" x1="39.5" y1="0" x2="39.5" y2="64" gradientUnits="userSpaceOnUse"><stop stop-color="#FFE49F"/><stop offset="1" stop-color="#FFD37F"/></linearGradient></defs></svg>